<?xml version="1.0" encoding="utf-8"?>
<!-- Generator: Adobe Illustrator 24.2.3, SVG Export Plug-In . SVG Version: 6.00 Build 0)  -->
<svg version="1.1" id="Layer_1" xmlns="http://www.w3.org/2000/svg" xmlns:xlink="http://www.w3.org/1999/xlink" x="0px" y="0px"
	 viewBox="0 0 100 100" style="enable-background:new 0 0 100 100;" xml:space="preserve">
<style type="text/css">
	.st0{fill:#C72217;}
</style>
<g>
	<path d="M63.8,47.8H36c-1.2,0-2.3-1-2.3-2.3V17.8c0-1.2,1-2.3,2.3-2.3h27.8c1.2,0,2.3,1,2.3,2.3v27.8
		C66.1,46.8,65.1,47.8,63.8,47.8z M36,17c-0.4,0-0.8,0.3-0.8,0.8v27.8c0,0.4,0.3,0.8,0.8,0.8h27.8c0.4,0,0.8-0.3,0.8-0.8V17.8
		c0-0.4-0.3-0.8-0.8-0.8H36z"/>
</g>
<g>
	<path d="M42.2,36.3c-0.2,0-0.4-0.1-0.5-0.2c-0.3-0.3-0.3-0.8,0-1.1l7.8-7.8c0.3-0.3,0.8-0.3,1.1,0l7.8,7.8c0.3,0.3,0.3,0.8,0,1.1
		c-0.3,0.3-0.8,0.3-1.1,0l-7.2-7.2l-7.2,7.2C42.6,36.2,42.4,36.3,42.2,36.3z"/>
</g>
<g>
	<path d="M63.8,81.6H36c-1.2,0-2.3-1-2.3-2.3V51.5c0-1.2,1-2.3,2.3-2.3h27.8c1.2,0,2.3,1,2.3,2.3v27.8
		C66.1,80.6,65.1,81.6,63.8,81.6z M36,50.8c-0.4,0-0.8,0.3-0.8,0.8v27.8c0,0.4,0.3,0.8,0.8,0.8h27.8c0.4,0,0.8-0.3,0.8-0.8V51.5
		c0-0.4-0.3-0.8-0.8-0.8H36z"/>
</g>
<g>
	<path class="st0" d="M50,71.5c-0.2,0-0.4-0.1-0.5-0.2l-7.8-7.8c-0.3-0.3-0.3-0.8,0-1.1c0.3-0.3,0.8-0.3,1.1,0l7.2,7.2l7.2-7.2
		c0.3-0.3,0.8-0.3,1.1,0c0.3,0.3,0.3,0.8,0,1.1l-7.8,7.8C50.4,71.5,50.2,71.5,50,71.5z"/>
</g>
<g>
	<path d="M97.6,81.6H69.8c-1.2,0-2.3-1-2.3-2.3V51.5c0-1.2,1-2.3,2.3-2.3h27.8c1.2,0,2.3,1,2.3,2.3v27.8
		C99.9,80.6,98.9,81.6,97.6,81.6z M69.8,50.8c-0.4,0-0.8,0.3-0.8,0.8v27.8c0,0.4,0.3,0.8,0.8,0.8h27.8c0.4,0,0.8-0.3,0.8-0.8V51.5
		c0-0.4-0.3-0.8-0.8-0.8H69.8z"/>
</g>
<g>
	<path d="M79.8,74c-0.2,0-0.4-0.1-0.5-0.2c-0.3-0.3-0.3-0.8,0-1.1l7.2-7.2l-7.2-7.2c-0.3-0.3-0.3-0.8,0-1.1c0.3-0.3,0.8-0.3,1.1,0
		l7.8,7.8c0.3,0.3,0.3,0.8,0,1.1l-7.8,7.8C80.2,73.9,80,74,79.8,74z"/>
</g>
<g>
	<path d="M30,81.6H2.3c-1.2,0-2.3-1-2.3-2.3V51.5c0-1.2,1-2.3,2.3-2.3H30c1.2,0,2.3,1,2.3,2.3v27.8C32.3,80.6,31.3,81.6,30,81.6z
		 M2.3,50.8c-0.4,0-0.8,0.3-0.8,0.8v27.8c0,0.4,0.3,0.8,0.8,0.8H30c0.4,0,0.8-0.3,0.8-0.8V51.5c0-0.4-0.3-0.8-0.8-0.8H2.3z"/>
</g>
<g>
	<path d="M20,74c-0.2,0-0.4-0.1-0.5-0.2L11.7,66c-0.3-0.3-0.3-0.8,0-1.1l7.8-7.8c0.3-0.3,0.8-0.3,1.1,0c0.3,0.3,0.3,0.8,0,1.1
		l-7.2,7.2l7.2,7.2c0.3,0.3,0.3,0.8,0,1.1C20.4,73.9,20.2,74,20,74z"/>
</g>
</svg>
