<svg height='100px' width='100px'  fill="#000000" xmlns="http://www.w3.org/2000/svg" xmlns:xlink="http://www.w3.org/1999/xlink" version="1.1" x="0px" y="0px" viewBox="0 0 100 100" enable-background="new 0 0 100 100" xml:space="preserve"><path d="M80.041,74.609c0-0.027,0.003-0.054,0.003-0.082c0-0.013-0.004-0.025-0.004-0.038l-0.065-18.494  c0-3.897-2.973-7.069-6.627-7.069c-1.407,0-2.686,0.404-3.735,1.107c-0.531-3.272-3.165-5.69-6.438-5.69  c-1.441,0-2.757,0.473-3.827,1.276c-0.806-2.85-3.271-4.872-6.268-4.872c-1.323,0-2.54,0.397-3.56,1.081V22.443  c0-3.869-2.879-6.9-6.555-6.9c-3.67,0-6.544,3.031-6.544,6.9v30.831c-1.663-2.64-3.271-4.516-3.375-4.638  c-2.515-2.951-5.645-3.594-8.816-1.814c-3.196,1.804-4.216,5.857-2.322,9.229l0.138,0.243l0.211,0.176  c0.056,0.047,5.605,4.773,6.852,13.477c0.542,3.726,1.471,8.728,2.875,12.344c0,0.002,0,0.003,0.001,0.005  c1.619,4.689,6.712,12.556,22.633,12.556h3.512c13.193,0,21.254-7.037,21.857-18.888c0.034-0.128,0.06-0.26,0.059-0.398  L80.041,74.609z M58.128,91.85h-3.512c-9.993,0-16.857-3.448-19.473-9.722c-0.01-0.024-0.014-0.05-0.025-0.074  c-0.079-0.175-0.156-0.38-0.233-0.572c-0.021-0.057-0.047-0.109-0.066-0.166c-0.003-0.01-0.009-0.017-0.012-0.026  c-1.043-2.66-2.004-6.78-2.73-11.772c-1.278-8.923-6.467-14.065-7.667-15.148c-0.938-1.886-0.405-3.976,1.29-4.933  c1.187-0.665,3.001-1.271,5.069,1.154c0.04,0.046,3.941,4.594,5.651,9.299v3.206c0,0.828,0.671,1.5,1.5,1.5s1.5-0.672,1.5-1.5  V22.443c0-2.224,1.524-3.9,3.544-3.9c2.027,0,3.555,1.677,3.555,3.9v25.214v8.666v3.396c0,0.828,0.671,1.5,1.5,1.5  s1.5-0.672,1.5-1.5v-3.396v-8.666c0-2.265,1.498-3.909,3.56-3.909c2.022,0,3.548,1.681,3.548,3.909v3.596v5.069v3.396  c0,0.828,0.672,1.5,1.5,1.5s1.5-0.672,1.5-1.5v-3.396v-5.069c0-2.229,1.524-3.91,3.547-3.91c2.019,0,3.541,1.681,3.541,3.91v4.431  v0.639v4.204c0,0.828,0.672,1.5,1.5,1.5s1.5-0.672,1.5-1.5v-4.204v-0.639c0-2.177,1.527-3.757,3.632-3.757  c2,0,3.627,1.825,3.627,4.073l0.066,18.649C76.97,90.168,63.8,91.85,58.128,91.85z"></path><path d="M59.023,10.884c0.284,0,0.57-0.08,0.824-0.248l1.937-1.276v26.707c0,0.829,0.672,1.5,1.5,1.5s1.5-0.671,1.5-1.5V9.361  l1.932,1.274c0.255,0.168,0.541,0.248,0.825,0.248c0.486,0,0.965-0.237,1.253-0.674c0.456-0.691,0.266-1.622-0.426-2.078l-4.245-2.8  c0,0-0.001-0.001-0.001-0.001l-0.001,0c-0.004-0.002-0.007-0.004-0.01-0.006L64.11,5.323c-0.005-0.003-0.011-0.005-0.016-0.008  c-0.036-0.023-0.076-0.041-0.114-0.061c-0.039-0.021-0.076-0.045-0.117-0.062c-0.004-0.002-0.009-0.003-0.013-0.005  c-0.042-0.017-0.086-0.026-0.129-0.04c-0.05-0.015-0.099-0.033-0.149-0.043c-0.053-0.01-0.105-0.012-0.158-0.017  c-0.041-0.003-0.081-0.011-0.121-0.011c-0.003,0-0.006-0.001-0.009-0.001c-0.002,0-0.004,0-0.007,0  c-0.053,0-0.104,0.009-0.157,0.015c-0.04,0.004-0.081,0.005-0.121,0.013c-0.006,0.001-0.012,0-0.017,0.001  c-0.002,0-0.004,0.001-0.006,0.002c-0.059,0.012-0.114,0.033-0.172,0.052c-0.027,0.009-0.056,0.015-0.083,0.025  c-0.007,0.003-0.013,0.005-0.02,0.007c-0.016,0.006-0.028,0.017-0.044,0.023c-0.074,0.034-0.146,0.071-0.215,0.118l-4.246,2.798  c-0.692,0.456-0.883,1.386-0.427,2.078C58.059,10.647,58.536,10.884,59.023,10.884z"></path></svg>